# Blender 3.5.1
# www.blender.org
mtllib cube_blender_pretty.mtl
o Cube
v 0.837629 -1.000000 0.837933
v 0.837629 1.000000 0.837933
v 0.837629 1.000000 -0.835837
v 0.837629 -1.000000 -0.835837
v -0.836945 -1.000000 0.837933
v -0.836945 -1.000000 -0.835837
v -0.836945 1.000000 0.837933
v -0.836945 1.000000 -0.835837
v 1.000000 0.834971 0.837933
v -1.000000 0.834971 0.837933
v 1.000000 0.834971 -0.835837
v -1.000000 0.834971 -0.835837
v 0.837629 0.834971 -1.000000
v 0.837629 0.834971 1.000000
v -0.836945 0.834971 -1.000000
v -0.836945 0.834971 1.000000
v 1.000000 -0.837316 0.837933
v -1.000000 -0.837316 0.837933
v 1.000000 -0.837316 -0.835837
v -1.000000 -0.837316 -0.835837
v 0.837629 -0.837316 -1.000000
v 0.837629 -0.837316 1.000000
v -0.836945 -0.837316 -1.000000
v -0.836945 -0.837316 1.000000
v -0.836945 0.834971 -0.986973
v 0.837629 0.834971 -0.986973
v 0.837629 -0.837316 -0.986973
v -0.836945 -0.837316 -0.986973
v -0.836945 0.989430 0.837933
v 0.837629 0.989430 0.837933
v -0.836945 0.989430 -0.835837
v 0.837629 0.989430 -0.835837
v 0.988267 0.834971 -0.835837
v 0.988267 0.834971 0.837933
v 0.988267 -0.837316 0.837933
v 0.988267 -0.837316 -0.835837
v 0.837629 -0.992949 -0.835837
v 0.837629 -0.992949 0.837933
v -0.836945 -0.992949 0.837933
v -0.836945 -0.992949 -0.835837
v 0.837629 0.834971 0.986012
v -0.836945 0.834971 0.986012
v 0.837629 -0.837316 0.986012
v -0.836945 -0.837316 0.986012
v -0.986023 0.834971 0.837933
v -0.986023 0.834971 -0.835837
v -0.986023 -0.837316 0.837933
v -0.986023 -0.837316 -0.835837
v 0.992977 0.992977 -1.000000
v 0.992977 1.000000 -0.992977
v 1.000000 0.992977 -0.992977
v 0.992977 0.997943 -0.997943
v 0.997032 0.997032 -0.997032
v 0.997943 0.997943 -0.992977
v 0.997943 0.992977 -0.997943
v 0.992977 -0.992977 -1.000000
v 1.000000 -0.992977 -0.992977
v 0.992977 -1.000000 -0.992977
v 0.997943 -0.992977 -0.997943
v 0.997032 -0.997032 -0.997032
v 0.997943 -0.997943 -0.992977
v 0.992977 -0.997943 -0.997943
v 1.000000 0.992977 0.992977
v 0.992977 1.000000 0.992977
v 0.992977 0.992977 1.000000
v 0.997943 0.997943 0.992977
v 0.997032 0.997032 0.997032
v 0.992977 0.997943 0.997943
v 0.997943 0.992977 0.997943
v 1.000000 -0.992977 0.992977
v 0.992977 -0.992977 1.000000
v 0.992977 -1.000000 0.992977
v 0.997943 -0.992977 0.997943
v 0.997032 -0.997032 0.997032
v 0.992977 -0.997943 0.997943
v 0.997943 -0.997943 0.992977
v -1.000000 0.992977 -0.992977
v -0.992977 1.000000 -0.992977
v -0.992977 0.992977 -1.000000
v -0.997943 0.997943 -0.992977
v -0.997032 0.997032 -0.997032
v -0.992977 0.997943 -0.997943
v -0.997943 0.992977 -0.997943
v -0.992977 -1.000000 -0.992977
v -1.000000 -0.992977 -0.992977
v -0.992977 -0.992977 -1.000000
v -0.997943 -0.997943 -0.992977
v -0.997032 -0.997032 -0.997032
v -0.997943 -0.992977 -0.997943
v -0.992977 -0.997943 -0.997943
v -1.000000 0.992977 0.992977
v -0.992977 0.992977 1.000000
v -0.992977 1.000000 0.992977
v -0.997943 0.992977 0.997943
v -0.997032 0.997032 0.997032
v -0.992977 0.997943 0.997943
v -0.997943 0.997943 0.992977
v -1.000000 -0.992977 0.992977
v -0.992977 -1.000000 0.992977
v -0.992977 -0.992977 1.000000
v -0.997943 -0.997943 0.992977
v -0.997032 -0.997032 0.997032
v -0.992977 -0.997943 0.997943
v -0.997943 -0.992977 0.997943
v -1.000000 -0.992977 0.837933
v -0.992977 -1.000000 0.837933
v -0.997943 -0.997943 0.837933
v 1.000000 0.992977 0.837933
v 0.992977 1.000000 0.837933
v 0.997943 0.997943 0.837933
v -0.992977 1.000000 0.837933
v -1.000000 0.992977 0.837933
v -0.997943 0.997943 0.837933
v 0.992977 -1.000000 0.837933
v 1.000000 -0.992977 0.837933
v 0.997943 -0.997943 0.837933
v -1.000000 0.992977 -0.835837
v -0.992977 1.000000 -0.835837
v -0.997943 0.997943 -0.835837
v 1.000000 -0.992977 -0.835837
v 0.992977 -1.000000 -0.835837
v 0.997943 -0.997943 -0.835837
v -1.000000 -0.992977 -0.835837
v -0.992977 -1.000000 -0.835837
v -0.997943 -0.997943 -0.835837
v 1.000000 0.992977 -0.835837
v 0.992977 1.000000 -0.835837
v 0.997943 0.997943 -0.835837
v 0.837629 -1.000000 -0.992977
v 0.837629 -0.992977 -1.000000
v 0.837629 -0.997943 -0.997943
v 0.837629 1.000000 0.992977
v 0.837629 0.992977 1.000000
v 0.837629 0.997943 0.997943
v 0.837629 -0.992977 1.000000
v 0.837629 -1.000000 0.992977
v 0.837629 -0.997943 0.997943
v 0.837629 0.992977 -1.000000
v 0.837629 1.000000 -0.992977
v 0.837629 0.997943 -0.997943
v -0.836945 -0.992977 -1.000000
v -0.836945 -1.000000 -0.992977
v -0.836945 -0.997943 -0.997943
v -0.836945 0.992977 1.000000
v -0.836945 1.000000 0.992977
v -0.836945 0.997943 0.997943
v -0.836945 -0.992977 1.000000
v -0.836945 -1.000000 0.992977
v -0.836945 -0.997943 0.997943
v -0.836945 0.992977 -1.000000
v -0.836945 1.000000 -0.992977
v -0.836945 0.997943 -0.997943
v 1.000000 0.834971 -0.992977
v 0.992977 0.834971 -1.000000
v 0.997943 0.834971 -0.997943
v -1.000000 0.834971 0.992977
v -0.992977 0.834971 1.000000
v -0.997943 0.834971 0.997943
v 0.992977 0.834971 1.000000
v 1.000000 0.834971 0.992977
v 0.997943 0.834971 0.997943
v -0.992977 0.834971 -1.000000
v -1.000000 0.834971 -0.992977
v -0.997943 0.834971 -0.997943
v 0.992977 -0.837316 -1.000000
v 1.000000 -0.837316 -0.992977
v 0.997943 -0.837316 -0.997943
v 1.000000 -0.837316 0.992977
v 0.992977 -0.837316 1.000000
v 0.997943 -0.837316 0.997943
v -1.000000 -0.837316 -0.992977
v -0.992977 -0.837316 -1.000000
v -0.997943 -0.837316 -0.997943
v -1.000000 -0.837316 0.992977
v -0.992977 -0.837316 1.000000
v -0.997943 -0.837316 0.997943
vn -1.0000 -0.0000 -0.0000
vn -0.0000 1.0000 -0.0000
vn -0.0000 -0.0000 -1.0000
vn 1.0000 -0.0000 -0.0000
vn -0.0000 -0.0000 1.0000
vn -0.0000 -1.0000 -0.0000
vn 0.3672 0.2818 -0.8864
vn 0.2818 0.8864 -0.3672
vn 0.8864 0.3672 -0.2818
vn 0.2817 -0.3672 -0.8865
vn 0.8865 -0.2817 -0.3672
vn 0.3672 -0.8865 -0.2817
vn 0.8865 0.2817 0.3672
vn 0.3672 0.8865 0.2817
vn 0.2817 0.3672 0.8865
vn 0.8864 -0.3672 0.2818
vn 0.3672 -0.2818 0.8864
vn 0.2818 -0.8864 0.3672
vn -0.8865 0.2817 -0.3672
vn -0.3672 0.8865 -0.2817
vn -0.2817 0.3672 -0.8865
vn -0.2818 -0.8864 -0.3672
vn -0.8864 -0.3672 -0.2818
vn -0.3672 -0.2818 -0.8864
vn -0.8864 0.3672 0.2818
vn -0.3672 0.2818 0.8864
vn -0.2818 0.8864 0.3672
vn -0.8865 -0.2817 0.3672
vn -0.3672 -0.8865 0.2817
vn -0.2817 -0.3672 0.8865
vn -0.3827 -0.9239 -0.0000
vn -0.9239 -0.3827 -0.0000
vn -0.0000 -0.9239 -0.3827
vn -0.0000 -0.3827 -0.9239
vn 0.9239 -0.0000 -0.3827
vn 0.3827 -0.0000 -0.9239
vn -0.3827 -0.0000 0.9239
vn -0.9239 -0.0000 0.3827
vn 0.3827 -0.0000 0.9239
vn 0.9239 -0.0000 0.3827
vn -0.3827 -0.0000 -0.9239
vn -0.9239 -0.0000 -0.3827
vn -0.0000 0.9239 0.3827
vn -0.0000 0.3827 0.9239
vn 0.3827 0.9239 -0.0000
vn 0.9239 0.3827 -0.0000
vn -0.0000 -0.9239 0.3827
vn -0.0000 -0.3827 0.9239
vn -0.3827 0.9239 -0.0000
vn -0.9239 0.3827 -0.0000
vn -0.0000 0.9239 -0.3827
vn -0.0000 0.3827 -0.9239
vn 0.3827 -0.9239 -0.0000
vn 0.9239 -0.3827 -0.0000
vn 0.2817 0.3672 -0.8865
vn 0.3672 0.8865 -0.2817
vn 0.8865 0.2817 -0.3672
vn 0.3672 -0.2818 -0.8864
vn 0.8864 -0.3672 -0.2818
vn 0.2818 -0.8864 -0.3672
vn 0.8864 0.3672 0.2818
vn 0.2818 0.8864 0.3672
vn 0.3672 0.2818 0.8864
vn 0.8865 -0.2817 0.3672
vn 0.2817 -0.3672 0.8865
vn 0.3672 -0.8865 0.2817
vn -0.8864 0.3672 -0.2818
vn -0.2818 0.8864 -0.3672
vn -0.3672 0.2818 -0.8864
vn -0.3672 -0.8865 -0.2817
vn -0.8865 -0.2817 -0.3672
vn -0.2817 -0.3672 -0.8865
vn -0.8865 0.2817 0.3672
vn -0.2817 0.3672 0.8865
vn -0.3672 0.8865 0.2817
vn -0.8864 -0.3672 0.2818
vn -0.2818 -0.8864 0.3672
vn -0.3672 -0.2818 0.8864
vt 0.918815 0.081033
vt 0.918815 0.081033
vt 0.918815 0.917918
vt 0.918815 0.917918
vt 0.081528 0.081033
vt 0.081528 0.917918
vt 0.081528 0.081033
vt 0.081528 0.917918
vt 0.081033 0.917486
vt 0.081033 0.917486
vt 0.917918 0.917486
vt 0.917918 0.917486
vt 0.918815 0.917486
vt 0.918815 0.917486
vt 0.081528 0.917486
vt 0.081528 0.917486
vt 0.081033 0.081342
vt 0.081033 0.081342
vt 0.917918 0.081342
vt 0.917918 0.081342
vt 0.918815 0.081342
vt 0.918815 0.081342
vt 0.081528 0.081342
vt 0.081528 0.081342
vt 0.081528 0.917486
vt 0.918815 0.917486
vt 0.918815 0.081342
vt 0.081528 0.081342
vt 0.081528 0.081033
vt 0.918815 0.081033
vt 0.081528 0.917918
vt 0.918815 0.917918
vt 0.917918 0.917486
vt 0.081033 0.917486
vt 0.081033 0.081342
vt 0.917918 0.081342
vt 0.918815 0.917918
vt 0.918815 0.081033
vt 0.081528 0.081033
vt 0.081528 0.917918
vt 0.918815 0.917486
vt 0.081528 0.917486
vt 0.918815 0.081342
vt 0.081528 0.081342
vt 0.081033 0.917486
vt 0.917918 0.917486
vt 0.081033 0.081342
vt 0.917918 0.081342
vt 0.996488 0.996488
vt 0.996488 0.996488
vt 0.996488 0.996488
vt 0.996488 1.000000
vt 0.999505 0.999011
vt 0.996488 1.000000
vt 1.000000 0.996488
vt 1.000000 0.996488
vt 0.996488 0.003512
vt 0.996488 0.003512
vt 0.996488 0.996488
vt 1.000000 0.003512
vt 1.000000 0.001484
vt 0.998516 0.000000
vt 0.998516 1.000000
vt 1.000000 0.996488
vt 0.996488 0.000000
vt 0.996488 0.000000
vt 0.996488 1.000000
vt 0.003512 0.996488
vt 0.996488 0.003512
vt 0.996488 0.996488
vt 1.000000 0.003512
vt 0.003512 1.000000
vt 0.001484 1.000000
vt 0.998516 0.000000
vt 1.000000 0.998516
vt 0.996488 1.000000
vt 0.996488 0.000000
vt 0.000000 0.996488
vt 1.000000 0.996488
vt 0.003512 0.003512
vt 0.996488 0.003512
vt 0.996488 0.003512
vt 1.000000 0.003512
vt 0.000000 0.003512
vt 0.000000 0.001484
vt 0.998516 0.000000
vt 1.000000 0.001484
vt 0.996488 0.000000
vt 0.003512 0.000000
vt 1.000000 0.003512
vt 0.996488 0.996488
vt 0.003512 0.996488
vt 0.003512 0.996488
vt 0.000000 0.996488
vt 0.996488 1.000000
vt 0.998516 1.000000
vt 0.001484 1.000000
vt 0.000000 0.998516
vt 0.003512 1.000000
vt 1.000000 0.996488
vt 0.000000 0.996488
vt 0.003512 0.996488
vt 0.996488 0.003512
vt 0.003512 0.003512
vt 0.996488 0.000000
vt 0.000000 0.996488
vt 0.000000 0.998516
vt 1.000000 0.001484
vt 0.001484 0.000000
vt 0.000000 0.003512
vt 1.000000 0.003512
vt 0.003512 1.000000
vt 0.003512 0.000000
vt 0.003512 0.996488
vt 0.003512 0.996488
vt 0.003512 0.003512
vt 0.000000 0.996488
vt 0.000000 0.998516
vt 0.001484 1.000000
vt 0.000000 0.001484
vt 0.003512 0.000000
vt 0.003512 1.000000
vt 0.003512 1.000000
vt 0.000000 0.003512
vt 0.003512 0.003512
vt 0.003512 0.003512
vt 0.003512 0.003512
vt 0.000000 0.003512
vt 0.003512 0.000000
vt 0.000989 0.000495
vt 0.003512 0.000000
vt 0.000000 0.003512
vt 0.081033 0.003512
vt 0.003512 0.081033
vt 0.000000 0.081033
vt 0.081033 0.000000
vt 0.081033 0.996488
vt 0.996488 0.081033
vt 1.000000 0.081033
vt 0.081033 1.000000
vt 0.003512 0.081033
vt 0.081033 0.996488
vt 0.081033 1.000000
vt 0.000000 0.081033
vt 0.996488 0.081033
vt 0.081033 0.003512
vt 0.081033 0.000000
vt 1.000000 0.081033
vt 0.917918 0.996488
vt 0.003512 0.917918
vt 0.000000 0.917918
vt 0.917918 1.000000
vt 0.917918 0.003512
vt 0.996488 0.917918
vt 1.000000 0.917918
vt 0.917918 0.000000
vt 0.917918 0.003512
vt 0.003512 0.917918
vt 0.000000 0.917918
vt 0.917918 0.000000
vt 0.917918 0.996488
vt 0.996488 0.917918
vt 1.000000 0.917918
vt 0.917918 1.000000
vt 0.918815 0.996488
vt 0.918815 0.003512
vt 0.918815 0.000000
vt 0.918815 1.000000
vt 0.918815 0.003512
vt 0.918815 0.996488
vt 0.918815 1.000000
vt 0.918815 0.000000
vt 0.918815 0.003512
vt 0.918815 0.003512
vt 0.918815 0.000000
vt 0.918815 0.996488
vt 0.918815 0.996488
vt 0.918815 1.000000
vt 0.081528 0.003512
vt 0.081528 0.996488
vt 0.081528 1.000000
vt 0.081528 0.000000
vt 0.081528 0.996488
vt 0.081528 0.003512
vt 0.081528 0.000000
vt 0.081528 1.000000
vt 0.081528 0.003512
vt 0.081528 0.003512
vt 0.081528 0.000000
vt 0.081528 0.996488
vt 0.081528 0.996488
vt 0.081528 1.000000
vt 0.996488 0.917486
vt 0.996488 0.917486
vt 1.000000 0.917486
vt 0.003512 0.917486
vt 0.003512 0.917486
vt 0.000000 0.917486
vt 0.996488 0.917486
vt 0.003512 0.917486
vt 0.000000 0.917486
vt 1.000000 0.917486
vt 0.003512 0.917486
vt 0.996488 0.917486
vt 1.000000 0.917486
vt 0.000000 0.917486
vt 0.996488 0.081342
vt 0.996488 0.081342
vt 1.000000 0.081342
vt 0.003512 0.081342
vt 0.996488 0.081342
vt 1.000000 0.081342
vt 0.000000 0.081342
vt 0.996488 0.081342
vt 0.003512 0.081342
vt 0.000000 0.081342
vt 1.000000 0.081342
vt 0.003512 0.081342
vt 0.003512 0.081342
vt 0.000000 0.081342
s 0
usemtl Material
f 174/218/1 105/133/1 98/125/1
f 111/141/2 145/184/2 7/7/2
f 172/215/3 141/179/3 86/104/3
f 17/17/4 70/80/4 115/146/4
f 169/211/5 135/173/5 71/81/5
f 166/208/4 120/153/4 57/58/4
f 112/142/1 12/12/1 10/10/1
f 129/165/6 6/6/6 142/180/6
f 144/183/5 157/197/5 16/16/5
f 19/19/4 115/146/4 120/153/4
f 79/93/3 15/15/3 162/203/3
f 21/21/3 56/57/3 130/166/3
f 138/176/3 154/194/3 13/13/3
f 118/150/2 7/7/2 8/8/2
f 23/23/3 130/166/3 141/179/3
f 51/51/4 11/11/4 153/193/4
f 126/161/4 9/9/4 11/11/4
f 6/6/4 39/39/4 5/5/4
f 153/193/4 19/19/4 166/208/4
f 151/191/2 3/3/2 139/177/2
f 108/137/4 160/200/4 9/9/4
f 65/70/5 14/14/5 159/199/5
f 24/24/5 100/127/5 147/187/5
f 117/149/1 163/204/1 12/12/1
f 3/3/2 109/138/2 127/162/2
f 91/114/1 10/10/1 156/196/1
f 150/190/3 13/13/3 15/15/3
f 8/8/5 32/32/5 3/3/5
f 22/22/5 147/187/5 135/173/5
f 133/170/5 16/16/5 14/14/5
f 22/22/2 44/44/2 24/24/2
f 12/12/1 171/214/1 20/20/1
f 9/9/4 168/210/4 17/17/4
f 13/13/6 25/25/6 15/15/6
f 12/12/6 45/45/6 10/10/6
f 13/13/3 165/207/3 21/21/3
f 159/199/5 22/22/5 169/211/5
f 11/11/5 36/36/5 19/19/5
f 24/24/5 157/197/5 175/219/5
f 162/203/3 23/23/3 172/215/3
f 156/196/1 18/18/1 174/218/1
f 18/18/1 123/157/1 105/133/1
f 142/180/6 124/158/6 84/102/6
f 78/92/2 8/8/2 151/191/2
f 2/2/2 64/69/2 109/138/2
f 121/154/6 1/1/6 4/4/6
f 5/5/6 99/126/6 106/134/6
f 58/59/6 4/4/6 129/165/6
f 6/6/6 106/134/6 124/158/6
f 7/7/2 132/169/2 2/2/2
f 114/145/6 136/174/6 1/1/6
f 20/20/1 85/103/1 123/157/1
f 1/1/6 148/188/6 5/5/6
f 25/25/3 27/27/3 28/28/3
f 15/15/4 28/28/4 23/23/4
f 23/23/2 27/27/2 21/21/2
f 21/21/1 26/26/1 13/13/1
f 31/31/2 30/30/2 32/32/2
f 7/7/4 31/31/4 8/8/4
f 2/2/3 29/29/3 7/7/3
f 3/3/1 30/30/1 2/2/1
f 33/33/4 35/35/4 36/36/4
f 19/19/2 35/35/2 17/17/2
f 17/17/3 34/34/3 9/9/3
f 9/9/6 33/33/6 11/11/6
f 37/37/6 39/39/6 40/40/6
f 1/1/1 37/37/1 4/4/1
f 5/5/3 38/38/3 1/1/3
f 4/4/5 40/40/5 6/6/5
f 41/41/5 44/44/5 43/43/5
f 16/16/6 41/41/6 14/14/6
f 24/24/4 42/42/4 16/16/4
f 14/14/1 43/43/1 22/22/1
f 45/45/1 48/48/1 47/47/1
f 18/18/2 48/48/2 20/20/2
f 20/20/5 46/46/5 12/12/5
f 10/10/3 47/47/3 18/18/3
f 49/49/7 53/53/7 55/56/7
f 50/50/8 53/53/8 52/52/8
f 51/51/9 53/53/9 54/54/9
f 56/57/10 60/61/10 62/66/10
f 57/58/11 60/62/11 59/60/11
f 58/59/12 60/63/12 61/64/12
f 63/68/13 67/73/13 69/78/13
f 64/69/14 67/74/14 66/71/14
f 65/70/15 67/75/15 68/76/15
f 70/80/16 74/85/16 76/89/16
f 71/81/17 74/86/17 73/83/17
f 72/82/18 74/87/18 75/88/18
f 77/91/19 81/96/19 83/100/19
f 78/92/20 81/97/20 80/94/20
f 79/93/21 81/98/21 82/99/21
f 84/102/22 88/107/22 90/112/22
f 85/103/23 88/108/23 87/105/23
f 86/104/24 88/109/24 89/110/24
f 91/114/25 95/118/25 97/123/25
f 92/115/26 95/119/26 94/117/26
f 93/116/27 95/120/27 96/121/27
f 98/125/28 102/130/28 104/132/28
f 99/126/29 102/130/29 101/128/29
f 100/127/30 102/130/30 103/131/30
f 99/126/31 107/135/31 106/134/31
f 101/129/32 105/133/32 107/136/32
f 84/102/33 143/181/33 142/180/33
f 90/113/34 141/179/34 143/182/34
f 57/58/35 167/209/35 166/208/35
f 59/60/36 165/207/36 167/209/36
f 92/115/37 158/198/37 157/197/37
f 94/117/38 156/196/38 158/198/38
f 71/81/39 170/212/39 169/211/39
f 73/84/40 168/210/40 170/213/40
f 86/104/41 173/216/41 172/215/41
f 89/111/42 171/214/42 173/217/42
f 93/116/43 146/185/43 145/184/43
f 96/122/44 144/183/44 146/186/44
f 64/69/45 110/139/45 109/138/45
f 66/72/46 108/137/46 110/140/46
f 72/82/47 137/175/47 136/174/47
f 75/88/48 135/173/48 137/175/48
f 78/92/49 119/151/49 118/150/49
f 80/95/50 117/149/50 119/152/50
f 50/50/51 140/178/51 139/177/51
f 52/52/52 138/176/52 140/178/52
f 58/59/53 122/155/53 121/154/53
f 61/65/54 120/153/54 122/156/54
f 106/134/31 125/159/31 124/158/31
f 107/136/32 123/157/32 125/160/32
f 109/138/45 128/163/45 127/162/45
f 110/140/46 126/161/46 128/164/46
f 111/141/49 97/124/49 93/116/49
f 113/143/50 91/114/50 97/123/50
f 114/145/53 76/90/53 72/82/53
f 116/147/54 70/80/54 76/89/54
f 118/150/49 113/144/49 111/141/49
f 119/152/50 112/142/50 113/143/50
f 121/154/53 116/148/53 114/145/53
f 122/156/54 115/146/54 116/147/54
f 124/158/31 87/106/31 84/102/31
f 125/160/32 85/103/32 87/105/32
f 127/162/45 54/55/45 50/50/45
f 128/164/46 51/51/46 54/54/46
f 129/165/33 62/67/33 58/59/33
f 131/167/34 56/57/34 62/66/34
f 132/169/43 68/77/43 64/69/43
f 134/171/44 65/70/44 68/76/44
f 136/174/47 149/189/47 148/188/47
f 137/175/48 147/187/48 149/189/48
f 139/177/51 152/192/51 151/191/51
f 140/178/52 150/190/52 152/192/52
f 142/180/33 131/168/33 129/165/33
f 143/182/34 130/166/34 131/167/34
f 145/184/43 134/172/43 132/169/43
f 146/186/44 133/170/44 134/171/44
f 148/188/47 103/131/47 99/126/47
f 149/189/48 100/127/48 103/131/48
f 151/191/51 82/99/51 78/92/51
f 152/192/52 79/93/52 82/99/52
f 153/193/35 55/56/35 51/51/35
f 155/195/36 49/49/36 55/56/36
f 157/197/37 176/220/37 175/219/37
f 158/198/38 174/218/38 176/220/38
f 159/199/39 69/79/39 65/70/39
f 161/201/40 63/68/40 69/78/40
f 162/203/41 83/101/41 79/93/41
f 164/205/42 77/91/42 83/100/42
f 166/208/35 155/195/35 153/193/35
f 167/209/36 154/194/36 155/195/36
f 169/211/39 161/202/39 159/199/39
f 170/213/40 160/200/40 161/201/40
f 172/215/41 164/206/41 162/203/41
f 173/217/42 163/204/42 164/205/42
f 175/219/37 104/132/37 100/127/37
f 176/220/38 98/125/38 104/132/38
f 139/177/2 127/162/2 50/50/2
f 174/218/1 18/18/1 105/133/1
f 111/141/2 93/116/2 145/184/2
f 172/215/3 23/23/3 141/179/3
f 17/17/4 168/210/4 70/80/4
f 169/211/5 22/22/5 135/173/5
f 166/208/4 19/19/4 120/153/4
f 112/142/1 117/149/1 12/12/1
f 129/165/6 4/4/6 6/6/6
f 144/183/5 92/115/5 157/197/5
f 19/19/4 17/17/4 115/146/4
f 79/93/3 150/190/3 15/15/3
f 21/21/3 165/207/3 56/57/3
f 138/176/3 49/49/3 154/194/3
f 118/150/2 111/141/2 7/7/2
f 23/23/3 21/21/3 130/166/3
f 51/51/4 126/161/4 11/11/4
f 126/161/4 108/137/4 9/9/4
f 6/6/4 40/40/4 39/39/4
f 153/193/4 11/11/4 19/19/4
f 151/191/2 8/8/2 3/3/2
f 108/137/4 63/68/4 160/200/4
f 65/70/5 133/170/5 14/14/5
f 24/24/5 175/219/5 100/127/5
f 117/149/1 77/91/1 163/204/1
f 3/3/2 2/2/2 109/138/2
f 91/114/1 112/142/1 10/10/1
f 150/190/3 138/176/3 13/13/3
f 8/8/5 31/31/5 32/32/5
f 22/22/5 24/24/5 147/187/5
f 133/170/5 144/183/5 16/16/5
f 22/22/2 43/43/2 44/44/2
f 12/12/1 163/204/1 171/214/1
f 9/9/4 160/200/4 168/210/4
f 13/13/6 26/26/6 25/25/6
f 12/12/6 46/46/6 45/45/6
f 13/13/3 154/194/3 165/207/3
f 159/199/5 14/14/5 22/22/5
f 11/11/5 33/33/5 36/36/5
f 24/24/5 16/16/5 157/197/5
f 162/203/3 15/15/3 23/23/3
f 156/196/1 10/10/1 18/18/1
f 18/18/1 20/20/1 123/157/1
f 142/180/6 6/6/6 124/158/6
f 78/92/2 118/150/2 8/8/2
f 2/2/2 132/169/2 64/69/2
f 121/154/6 114/145/6 1/1/6
f 5/5/6 148/188/6 99/126/6
f 58/59/6 121/154/6 4/4/6
f 6/6/6 5/5/6 106/134/6
f 7/7/2 145/184/2 132/169/2
f 114/145/6 72/82/6 136/174/6
f 20/20/1 171/214/1 85/103/1
f 1/1/6 136/174/6 148/188/6
f 25/25/3 26/26/3 27/27/3
f 15/15/4 25/25/4 28/28/4
f 23/23/2 28/28/2 27/27/2
f 21/21/1 27/27/1 26/26/1
f 31/31/2 29/29/2 30/30/2
f 7/7/4 29/29/4 31/31/4
f 2/2/3 30/30/3 29/29/3
f 3/3/1 32/32/1 30/30/1
f 33/33/4 34/34/4 35/35/4
f 19/19/2 36/36/2 35/35/2
f 17/17/3 35/35/3 34/34/3
f 9/9/6 34/34/6 33/33/6
f 37/37/6 38/38/6 39/39/6
f 1/1/1 38/38/1 37/37/1
f 5/5/3 39/39/3 38/38/3
f 4/4/5 37/37/5 40/40/5
f 41/41/5 42/42/5 44/44/5
f 16/16/6 42/42/6 41/41/6
f 24/24/4 44/44/4 42/42/4
f 14/14/1 41/41/1 43/43/1
f 45/45/1 46/46/1 48/48/1
f 18/18/2 47/47/2 48/48/2
f 20/20/5 48/48/5 46/46/5
f 10/10/3 45/45/3 47/47/3
f 49/49/55 52/52/55 53/53/55
f 50/50/56 54/55/56 53/53/56
f 51/51/57 55/56/57 53/53/57
f 56/57/58 59/60/58 60/61/58
f 57/58/59 61/65/59 60/62/59
f 58/59/60 62/67/60 60/63/60
f 63/68/61 66/72/61 67/73/61
f 64/69/62 68/77/62 67/74/62
f 65/70/63 69/79/63 67/75/63
f 70/80/64 73/84/64 74/85/64
f 71/81/65 75/88/65 74/86/65
f 72/82/66 76/90/66 74/87/66
f 77/91/67 80/95/67 81/96/67
f 78/92/68 82/99/68 81/97/68
f 79/93/69 83/101/69 81/98/69
f 84/102/70 87/106/70 88/107/70
f 85/103/71 89/111/71 88/108/71
f 86/104/72 90/113/72 88/109/72
f 91/114/73 94/117/73 95/118/73
f 92/115/74 96/122/74 95/119/74
f 93/116/75 97/124/75 95/120/75
f 98/125/76 101/129/76 102/130/76
f 99/126/77 103/131/77 102/130/77
f 100/127/78 104/132/78 102/130/78
f 99/126/31 101/128/31 107/135/31
f 101/129/32 98/125/32 105/133/32
f 84/102/33 90/112/33 143/181/33
f 90/113/34 86/104/34 141/179/34
f 57/58/35 59/60/35 167/209/35
f 59/60/36 56/57/36 165/207/36
f 92/115/37 94/117/37 158/198/37
f 94/117/38 91/114/38 156/196/38
f 71/81/39 73/83/39 170/212/39
f 73/84/40 70/80/40 168/210/40
f 86/104/41 89/110/41 173/216/41
f 89/111/42 85/103/42 171/214/42
f 93/116/43 96/121/43 146/185/43
f 96/122/44 92/115/44 144/183/44
f 64/69/45 66/71/45 110/139/45
f 66/72/46 63/68/46 108/137/46
f 72/82/47 75/88/47 137/175/47
f 75/88/48 71/81/48 135/173/48
f 78/92/49 80/94/49 119/151/49
f 80/95/50 77/91/50 117/149/50
f 50/50/51 52/52/51 140/178/51
f 52/52/52 49/49/52 138/176/52
f 58/59/53 61/64/53 122/155/53
f 61/65/54 57/58/54 120/153/54
f 106/134/31 107/135/31 125/159/31
f 107/136/32 105/133/32 123/157/32
f 109/138/45 110/139/45 128/163/45
f 110/140/46 108/137/46 126/161/46
f 111/141/49 113/144/49 97/124/49
f 113/143/50 112/142/50 91/114/50
f 114/145/53 116/148/53 76/90/53
f 116/147/54 115/146/54 70/80/54
f 118/150/49 119/151/49 113/144/49
f 119/152/50 117/149/50 112/142/50
f 121/154/53 122/155/53 116/148/53
f 122/156/54 120/153/54 115/146/54
f 124/158/31 125/159/31 87/106/31
f 125/160/32 123/157/32 85/103/32
f 127/162/45 128/163/45 54/55/45
f 128/164/46 126/161/46 51/51/46
f 129/165/33 131/168/33 62/67/33
f 131/167/34 130/166/34 56/57/34
f 132/169/43 134/172/43 68/77/43
f 134/171/44 133/170/44 65/70/44
f 136/174/47 137/175/47 149/189/47
f 137/175/48 135/173/48 147/187/48
f 139/177/51 140/178/51 152/192/51
f 140/178/52 138/176/52 150/190/52
f 142/180/33 143/181/33 131/168/33
f 143/182/34 141/179/34 130/166/34
f 145/184/43 146/185/43 134/172/43
f 146/186/44 144/183/44 133/170/44
f 148/188/47 149/189/47 103/131/47
f 149/189/48 147/187/48 100/127/48
f 151/191/51 152/192/51 82/99/51
f 152/192/52 150/190/52 79/93/52
f 153/193/35 155/195/35 55/56/35
f 155/195/36 154/194/36 49/49/36
f 157/197/37 158/198/37 176/220/37
f 158/198/38 156/196/38 174/218/38
f 159/199/39 161/202/39 69/79/39
f 161/201/40 160/200/40 63/68/40
f 162/203/41 164/206/41 83/101/41
f 164/205/42 163/204/42 77/91/42
f 166/208/35 167/209/35 155/195/35
f 167/209/36 165/207/36 154/194/36
f 169/211/39 170/212/39 161/202/39
f 170/213/40 168/210/40 160/200/40
f 172/215/41 173/216/41 164/206/41
f 173/217/42 171/214/42 163/204/42
f 175/219/37 176/220/37 104/132/37
f 176/220/38 174/218/38 98/125/38
f 139/177/2 3/3/2 127/162/2
